<?xml version="1.0" encoding="utf-8"?>
<!-- Generator: Adobe Adobe Illustrator 29.2.0, SVG Export Plug-In . SVG Version: 6.00 Build 0)  -->
<svg version="1.1" xmlns="http://www.w3.org/2000/svg" xmlns:xlink="http://www.w3.org/1999/xlink" x="0px" y="0px"
	 viewBox="0 0 1280 719.56" style="enable-background:new 0 0 1280 719.56;" xml:space="preserve">
<style type="text/css">
	.st0{fill:#050304;}
	.st1{fill:none;stroke:#A8175B;stroke-miterlimit:10;}
	.st2{fill:none;stroke:#A8175B;stroke-width:17;stroke-miterlimit:10;}
	.st3{fill:none;stroke:#A8175B;stroke-width:18;stroke-miterlimit:10;}
	.st4{fill:none;stroke:#FFFFFF;stroke-width:23;stroke-miterlimit:10;}
	.st5{fill:none;stroke:#EA580C;stroke-width:23;stroke-miterlimit:10;}
	.st6{fill:#DDDDDD;stroke:#EA580C;stroke-width:23;stroke-miterlimit:10;}
	.st7{fill:#DDDDDD;stroke:#FFFFFF;stroke-width:23;stroke-miterlimit:10;}
	.st8{fill:none;stroke:#000000;stroke-width:23;stroke-miterlimit:10;}
	.st9{fill:#DDDDDD;stroke:#000000;stroke-width:23;stroke-miterlimit:10;}
</style>
<g id="Layer_5">
</g>
<g id="Colored_BlkBG">
</g>
<g id="BnW_BlkBG">
</g>
<g id="Colored">
	<polyline class="st8" points="338.15,425.97 404.55,297.66 488.01,462.06 533.44,462.06 	"/>
	<line class="st5" x1="198.24" y1="473.91" x2="198.24" y2="238.66"/>
	<line class="st5" x1="198.24" y1="238.66" x2="198.24" y2="473.91"/>
	<path class="st6" d="M326.5,271.8L196.01,384.62L326.5,271.8z"/>
	<polyline class="st8" points="762.51,462.26 808.02,462.26 890.66,302.97 972.71,462.26 	"/>
	<polyline class="st5" points="513.29,439.5 513.29,247.52 629.36,323.89 515.12,396.32 	"/>
	<line class="st5" x1="640.79" y1="359.28" x2="640.79" y2="473.91"/>
	<line class="st5" x1="733.79" y1="331.91" x2="733.79" y2="473.91"/>
	<path class="st5" d="M625.76,271.43c63.08,52.97,153.85,51.31,214.76,0"/>
	<circle class="st5" cx="733.14" cy="246.3" r="32.43"/>
	<polyline class="st5" points="1002.59,256.96 1002.59,461.6 1085.04,461.6 	"/>
	<path class="st6" d="M336.63,454.1L199.3,377.25L336.63,454.1z"/>
</g>
<g id="BnW">
</g>
</svg>
