<?xml version="1.0" encoding="utf-8"?>
<!-- Generator: Adobe Adobe Illustrator 29.2.0, SVG Export Plug-In . SVG Version: 6.00 Build 0)  -->
<svg version="1.1" xmlns="http://www.w3.org/2000/svg" xmlns:xlink="http://www.w3.org/1999/xlink" x="0px" y="0px"
	 viewBox="0 0 1280 719.94" style="enable-background:new 0 0 1280 719.94;" xml:space="preserve">
<style type="text/css">
	.st0{fill:#050304;}
	.st1{fill:none;stroke:#A8175B;stroke-miterlimit:10;}
	.st2{fill:none;stroke:#A8175B;stroke-width:17;stroke-miterlimit:10;}
	.st3{fill:none;stroke:#A8175B;stroke-width:18;stroke-miterlimit:10;}
	.st4{fill:none;stroke:#FFFFFF;stroke-width:23;stroke-miterlimit:10;}
	.st5{fill:none;stroke:#EA580C;stroke-width:23;stroke-miterlimit:10;}
	.st6{fill:#DDDDDD;stroke:#EA580C;stroke-width:23;stroke-miterlimit:10;}
	.st7{fill:#DDDDDD;stroke:#FFFFFF;stroke-width:23;stroke-miterlimit:10;}
	.st8{fill:none;stroke:#000000;stroke-width:23;stroke-miterlimit:10;}
	.st9{fill:#DDDDDD;stroke:#000000;stroke-width:23;stroke-miterlimit:10;}
</style>
<g id="Layer_5">
</g>
<g id="Colored_BlkBG">
	<g>
		<polyline class="st4" points="338.35,439.12 404.75,310.82 488.21,475.21 533.64,475.21 		"/>
		<line class="st5" x1="198.44" y1="487.06" x2="198.44" y2="251.81"/>
		<line class="st5" x1="198.44" y1="251.81" x2="198.44" y2="487.06"/>
		<path class="st6" d="M326.7,284.95L196.2,397.77L326.7,284.95z"/>
		<polyline class="st4" points="762.71,475.42 808.22,475.42 890.86,316.12 972.9,475.42 		"/>
		<polyline class="st5" points="513.48,452.65 513.48,260.67 629.55,337.04 515.32,409.47 		"/>
		<line class="st5" x1="640.98" y1="372.43" x2="640.98" y2="487.06"/>
		<line class="st5" x1="733.98" y1="345.06" x2="733.98" y2="487.06"/>
		<path class="st5" d="M625.96,284.58c63.08,52.97,153.85,51.31,214.76,0"/>
		<circle class="st5" cx="733.34" cy="259.45" r="32.43"/>
		<polyline class="st5" points="1002.78,270.12 1002.78,474.75 1085.24,474.75 		"/>
		<path class="st6" d="M336.83,467.25L199.5,390.4L336.83,467.25z"/>
	</g>
</g>
<g id="BnW_BlkBG">
</g>
<g id="Colored">
</g>
<g id="BnW">
</g>
</svg>
