<?xml version="1.0" encoding="utf-8"?>
<!-- Generator: Adobe Adobe Illustrator 29.2.0, SVG Export Plug-In . SVG Version: 6.00 Build 0)  -->
<svg version="1.1" xmlns="http://www.w3.org/2000/svg" xmlns:xlink="http://www.w3.org/1999/xlink" x="0px" y="0px"
	 viewBox="0 0 1280 719.94" style="enable-background:new 0 0 1280 719.94;" xml:space="preserve">
<style type="text/css">
	.st0{fill:#050304;}
	.st1{fill:none;stroke:#A8175B;stroke-miterlimit:10;}
	.st2{fill:none;stroke:#A8175B;stroke-width:17;stroke-miterlimit:10;}
	.st3{fill:none;stroke:#A8175B;stroke-width:18;stroke-miterlimit:10;}
	.st4{fill:none;stroke:#FFFFFF;stroke-width:23;stroke-miterlimit:10;}
	.st5{fill:none;stroke:#EA580C;stroke-width:23;stroke-miterlimit:10;}
	.st6{fill:#DDDDDD;stroke:#EA580C;stroke-width:23;stroke-miterlimit:10;}
	.st7{fill:#DDDDDD;stroke:#FFFFFF;stroke-width:23;stroke-miterlimit:10;}
	.st8{fill:none;stroke:#000000;stroke-width:23;stroke-miterlimit:10;}
	.st9{fill:#DDDDDD;stroke:#000000;stroke-width:23;stroke-miterlimit:10;}
</style>
<g id="Layer_5">
</g>
<g id="Colored_BlkBG">
</g>
<g id="BnW_BlkBG">
	<rect x="-4.12" y="-10.87" class="st0" width="1294.19" height="760.9"/>
	<g>
		<polyline class="st4" points="338.02,454.8 404.42,326.49 487.88,490.89 533.31,490.89 		"/>
		<line class="st4" x1="198.11" y1="502.74" x2="198.11" y2="267.49"/>
		<line class="st4" x1="198.11" y1="267.49" x2="198.11" y2="502.74"/>
		<path class="st7" d="M326.37,300.63L195.88,413.45L326.37,300.63z"/>
		<polyline class="st4" points="762.38,491.09 807.89,491.09 890.53,331.8 972.58,491.09 		"/>
		<polyline class="st4" points="513.15,468.33 513.15,276.34 629.23,352.72 514.99,425.15 		"/>
		<line class="st4" x1="640.66" y1="388.11" x2="640.66" y2="502.74"/>
		<line class="st4" x1="733.66" y1="360.74" x2="733.66" y2="502.74"/>
		<path class="st4" d="M625.63,300.26c63.08,52.97,153.85,51.31,214.76,0"/>
		<circle class="st4" cx="733.01" cy="275.13" r="32.43"/>
		<polyline class="st4" points="1002.46,285.79 1002.46,490.43 1084.91,490.43 		"/>
		<path class="st7" d="M336.5,482.93l-137.33-76.85L336.5,482.93z"/>
	</g>
</g>
<g id="Colored">
</g>
<g id="BnW">
</g>
</svg>
