<?xml version="1.0" encoding="utf-8"?>
<!-- Generator: Adobe Adobe Illustrator 29.2.0, SVG Export Plug-In . SVG Version: 6.00 Build 0)  -->
<svg version="1.1" xmlns="http://www.w3.org/2000/svg" xmlns:xlink="http://www.w3.org/1999/xlink" x="0px" y="0px"
	 viewBox="0 0 1280 719.56" style="enable-background:new 0 0 1280 719.56;" xml:space="preserve">
<style type="text/css">
	.st0{fill:#050304;}
	.st1{fill:none;stroke:#A8175B;stroke-miterlimit:10;}
	.st2{fill:none;stroke:#A8175B;stroke-width:17;stroke-miterlimit:10;}
	.st3{fill:none;stroke:#A8175B;stroke-width:18;stroke-miterlimit:10;}
	.st4{fill:none;stroke:#FFFFFF;stroke-width:23;stroke-miterlimit:10;}
	.st5{fill:none;stroke:#EA580C;stroke-width:23;stroke-miterlimit:10;}
	.st6{fill:#DDDDDD;stroke:#EA580C;stroke-width:23;stroke-miterlimit:10;}
	.st7{fill:#DDDDDD;stroke:#FFFFFF;stroke-width:23;stroke-miterlimit:10;}
	.st8{fill:none;stroke:#000000;stroke-width:23;stroke-miterlimit:10;}
	.st9{fill:#DDDDDD;stroke:#000000;stroke-width:23;stroke-miterlimit:10;}
</style>
<g id="Layer_5">
</g>
<g id="Colored_BlkBG">
</g>
<g id="BnW_BlkBG">
</g>
<g id="Colored">
</g>
<g id="BnW">
	<polyline class="st8" points="340.6,425.59 407,297.29 490.46,461.68 535.89,461.68 	"/>
	<line class="st8" x1="200.69" y1="473.53" x2="200.69" y2="238.28"/>
	<line class="st8" x1="200.69" y1="238.28" x2="200.69" y2="473.53"/>
	<path class="st9" d="M328.95,271.42L198.45,384.24L328.95,271.42z"/>
	<polyline class="st8" points="764.96,461.89 810.47,461.89 893.11,302.59 975.15,461.89 	"/>
	<polyline class="st8" points="515.73,439.12 515.73,247.14 631.81,323.51 517.57,395.94 	"/>
	<line class="st8" x1="643.23" y1="358.9" x2="643.23" y2="473.53"/>
	<line class="st8" x1="736.23" y1="331.53" x2="736.23" y2="473.53"/>
	<path class="st8" d="M628.21,271.05c63.08,52.97,153.85,51.31,214.76,0"/>
	<circle class="st8" cx="735.59" cy="245.92" r="32.43"/>
	<polyline class="st8" points="1005.03,256.58 1005.03,461.22 1087.49,461.22 	"/>
	<path class="st9" d="M339.08,453.72l-137.33-76.85L339.08,453.72z"/>
</g>
</svg>
